<svg id="svg" xmlns="http://www.w3.org/2000/svg" xmlns:xlink="http://www.w3.org/1999/xlink" width="400" height="181.60000000000002" viewBox="0, 0, 400,181.60000000000002"><g id="svgg"><path id="path0" d="M3.800 90.400 L 3.800 179.000 19.500 179.000 L 35.200 179.000 35.200 141.300 L 35.200 103.600 91.500 103.600 L 147.800 103.600 147.800 141.300 L 147.800 179.000 163.500 179.000 L 179.200 179.000 179.200 90.400 L 179.200 1.800 163.500 1.800 L 147.800 1.800 147.800 38.900 L 147.800 76.000 91.500 76.000 L 35.200 76.000 35.200 38.900 L 35.200 1.800 19.500 1.800 L 3.800 1.800 3.800 90.400 M218.600 90.400 L 218.600 179.000 232.659 179.000 L 246.718 179.000 278.491 140.500 C 295.967 119.325,310.321 102.000,310.390 102.000 C 310.458 102.000,321.536 119.322,335.007 140.493 L 359.500 178.986 377.462 178.993 C 391.776 178.999,395.395 178.949,395.281 178.750 C 395.202 178.613,380.655 155.747,362.953 127.937 C 345.251 100.127,330.811 77.267,330.865 77.137 C 330.919 77.007,344.876 60.048,361.881 39.451 C 378.887 18.855,392.800 1.957,392.800 1.901 C 392.800 1.846,385.167 1.800,375.838 1.800 L 358.876 1.800 304.488 68.318 L 250.100 134.836 250.050 68.318 L 249.999 1.800 234.300 1.800 L 218.600 1.800 218.600 90.400 " stroke="none" fill="#000000" fill-rule="evenodd"></path></g></svg>